<svg width="512" height="512" viewBox="0 0 512 512" xmlns="http://www.w3.org/2000/svg">
  <defs>
    <linearGradient id="bellGradientMaskable" x1="0%" y1="0%" x2="100%" y2="100%">
      <stop offset="0%" style="stop-color:#22d3ee;stop-opacity:1" />
      <stop offset="100%" style="stop-color:#06b6d4;stop-opacity:1" />
    </linearGradient>
  </defs>
  
  <!-- Full background for maskable icon -->
  <rect width="512" height="512" fill="#0f172a"/>
  
  <!-- Bell body - centered and larger for maskable -->
  <path d="M256 100 C 180 100, 120 160, 120 220 L 120 260 C 120 280, 130 300, 150 320 L 150 340 C 150 360, 170 380, 190 380 L 322 380 C 342 380, 362 360, 362 340 L 362 320 C 382 300, 392 280, 392 260 L 392 220 C 392 160, 332 100, 256 100 Z" fill="url(#bellGradientMaskable)"/>
  
  <!-- Bell clapper -->
  <circle cx="256" cy="240" r="12" fill="#0f172a"/>
  <line x1="256" y1="252" x2="256" y2="300" stroke="#0f172a" stroke-width="8" stroke-linecap="round"/>
  <circle cx="256" cy="300" r="16" fill="#0f172a"/>
  
  <!-- Bell rim highlight -->
  <path d="M 150 260 C 180 230, 332 230, 362 260" stroke="#67e8f9" stroke-width="4" fill="none" stroke-linecap="round"/>
</svg>
